<?xml version="1.0" encoding="utf-8"?>
<!-- Generator: Adobe Illustrator 23.0.1, SVG Export Plug-In . SVG Version: 6.00 Build 0)  -->
<!DOCTYPE svg PUBLIC "-//W3C//DTD SVG 1.1//EN" "http://www.w3.org/Graphics/SVG/1.1/DTD/svg11.dtd" [
        <!ENTITY ns_extend "http://ns.adobe.com/Extensibility/1.0/">
        <!ENTITY ns_ai "http://ns.adobe.com/AdobeIllustrator/10.0/">
        <!ENTITY ns_graphs "http://ns.adobe.com/Graphs/1.0/">
        <!ENTITY ns_vars "http://ns.adobe.com/Variables/1.0/">
        <!ENTITY ns_imrep "http://ns.adobe.com/ImageReplacement/1.0/">
        <!ENTITY ns_sfw "http://ns.adobe.com/SaveForWeb/1.0/">
        <!ENTITY ns_custom "http://ns.adobe.com/GenericCustomNamespace/1.0/">
        <!ENTITY ns_adobe_xpath "http://ns.adobe.com/XPath/1.0/">
        ]>
<svg version="1.1"
     id="Livello_1" xmlns="http://www.w3.org/2000/svg" x="0px" y="0px"
     viewBox="0 0 370.2 500"
     enable-background="new 0 0 370.2 500" xml:space="preserve">
<metadata>
	<sfw xmlns="&ns_sfw;">
		<slices></slices>
        <sliceSourceBounds bottomLeftOrigin="true" height="500" width="370.2" x="7454" y="1014.7"></sliceSourceBounds>
	</sfw>
</metadata>
    <g>
	<path fill="#FFFFFF" d="M288,0H82.1C36.8,0,0,36.8,0,82.2v335.7C0,463.2,36.8,500,82.1,500H288c45.4,0,82.2-36.8,82.2-82.2V82.2
		C370.2,36.8,333.4,0,288,0"/>
        <g>
		<path fill="#9CB3B3" d="M150.3,253.6l-14.4,87.9c10,2.5,35.9,8.3,35.9,8.3l13.9-113.8c1.2-10-1.2-20.1-6.8-28.4
			c-5.6-8.2-13-20.4-20.2-35.5c-22.6-47.5-20.7-97.5-20.7-97.5L97.3,90.9c-0.1,0.6,0,31.2,15,72.7c5.9,16.3,13.9,31.7,28,50
			C149,225,152.6,239.5,150.3,253.6"/>
            <path fill="#3582F2" d="M231.6,213.7c14.1-18.4,22.1-33.7,28-50c15-41.5,15.1-71.6,15-72.2l-40.6-16.4c0,0,1.9,49.5-20.7,96.9
			c-7.2,15.1-14.7,27.3-20.3,35.5c-5.6,8.3-8.1,18.4-6.8,28.4l13.9,113.8c0,0,25.9-5.8,35.9-8.3l-14.4-87.9
			C219.3,239.5,222.9,225,231.6,213.7"/>
            <path fill="#9CB3B3"
                  d="M212.3,66.3c-1.1,57.9-13.2,98.8-27.1,98.8c-13.9,0-24.6-41.2-25.6-99.3l25.6-10.4L212.3,66.3z"/>
	</g>
        <g>
		<path fill="#13316E" d="M39.8,442.8c-1.3,0-2.6-0.1-3.9-0.4c-1.3-0.2-2.5-0.6-3.6-1c-1.1-0.4-2.2-0.9-3.2-1.5
			c-1-0.6-1.8-1.2-2.5-1.9c-0.3-0.3-0.3-0.5-0.1-0.8l3.3-3.8c0.2-0.3,0.5-0.3,0.7-0.1c0.6,0.5,1.2,0.9,1.9,1.4
			c0.7,0.5,1.5,0.9,2.3,1.2c0.8,0.3,1.7,0.6,2.6,0.9c0.9,0.2,1.9,0.3,2.9,0.3c2.1,0,3.8-0.5,5-1.4c1.2-1,1.8-2.2,1.8-3.7
			c0-1.3-0.5-2.4-1.4-3.2c-0.9-0.8-2.6-1.4-5.1-1.8l-1.9-0.3c-3.5-0.5-6.1-1.6-8-3.2c-1.9-1.7-2.8-4-2.8-7c0-1.6,0.3-3.1,0.8-4.4
			c0.6-1.3,1.4-2.5,2.4-3.4c1.1-1,2.3-1.7,3.8-2.2c1.5-0.5,3.2-0.8,5-0.8c2.2,0,4.4,0.3,6.4,1c2,0.7,3.7,1.5,5.2,2.6
			c0.2,0.2,0.3,0.5,0.1,0.7l-2.5,3.9c-0.2,0.3-0.5,0.3-0.7,0.2c-1.5-0.9-2.9-1.7-4.3-2.1c-1.4-0.5-2.8-0.7-4.3-0.7
			c-1.8,0-3.2,0.4-4.2,1.3c-1,0.9-1.4,2-1.4,3.4c0,1.2,0.5,2.2,1.5,3.1c1,0.8,2.7,1.4,5.1,1.8l1.9,0.3c3.5,0.5,6.1,1.6,7.9,3.2
			c1.8,1.7,2.7,4,2.7,7.1c0,1.6-0.3,3-0.8,4.4c-0.6,1.4-1.4,2.5-2.5,3.5c-1.1,1-2.6,1.7-4.2,2.3C43.9,442.5,42,442.8,39.8,442.8"/>
            <path fill="#13316E" d="M73.4,437.2c2.1,0,3.7-0.7,5.1-2c1.3-1.3,1.9-3.2,1.9-5.7V407c0-0.3,0.2-0.5,0.5-0.5h5.2
			c0.3,0,0.5,0.2,0.5,0.5v22.7c0,2.1-0.3,3.9-1,5.5c-0.7,1.6-1.6,3-2.8,4.1c-1.2,1.1-2.6,2-4.2,2.6c-1.6,0.6-3.4,0.9-5.3,0.9
			c-1.9,0-3.6-0.3-5.2-0.9c-1.6-0.6-3-1.5-4.2-2.6c-1.2-1.1-2.1-2.5-2.8-4.1c-0.7-1.6-1-3.5-1-5.5V407c0-0.3,0.2-0.5,0.5-0.5h5.2
			c0.3,0,0.5,0.2,0.5,0.5v22.6c0,2.5,0.7,4.4,1.9,5.7C69.7,436.5,71.4,437.2,73.4,437.2"/>
            <path fill="#13316E" d="M95.8,442.2c-0.3,0-0.5-0.2-0.5-0.5V407c0-0.3,0.2-0.5,0.5-0.5h13.4c1.7,0,3.3,0.3,4.8,0.8
			c1.5,0.5,2.7,1.3,3.7,2.3c1,1,1.8,2.1,2.4,3.5s0.9,2.9,0.9,4.5c0,1.7-0.3,3.2-0.9,4.6s-1.4,2.5-2.4,3.5c-1,1-2.3,1.7-3.7,2.3
			c-1.5,0.5-3,0.8-4.8,0.8h-7.4c-0.2,0-0.3,0.1-0.3,0.3v12.7c0,0.3-0.2,0.5-0.5,0.5H95.8z M113.2,421.6c1.1-1,1.6-2.3,1.6-4
			c0-1.6-0.5-3-1.6-4c-1.1-1-2.5-1.5-4.4-1.5h-7c-0.2,0-0.3,0.1-0.3,0.3v10.4c0,0.2,0.1,0.3,0.3,0.3h7
			C110.7,423.1,112.2,422.6,113.2,421.6"/>
            <path fill="#13316E" d="M127.8,407c0-0.3,0.2-0.5,0.5-0.5h22.4c0.3,0,0.5,0.2,0.5,0.5v4.5c0,0.4-0.2,0.5-0.5,0.5h-16.4
			c-0.2,0-0.3,0.1-0.3,0.3v8.7c0,0.2,0.1,0.3,0.3,0.3h13.8c0.3,0,0.5,0.2,0.5,0.5v4.5c0,0.4-0.2,0.5-0.5,0.5h-13.8
			c-0.2,0-0.3,0.1-0.3,0.3v9c0,0.2,0.1,0.3,0.3,0.3h16.4c0.3,0,0.5,0.2,0.5,0.5v4.5c0,0.3-0.2,0.5-0.5,0.5h-22.4
			c-0.3,0-0.5-0.2-0.5-0.5V407z"/>
            <path fill="#13316E" d="M179.1,442.2c-0.4,0-0.7-0.2-0.8-0.5l-6.8-13.9h-6.2c-0.2,0-0.3,0.1-0.3,0.3v13.6c0,0.3-0.2,0.5-0.5,0.5
			h-5.2c-0.4,0-0.5-0.2-0.5-0.5V407c0-0.3,0.2-0.5,0.5-0.5h13.8c1.6,0,3.2,0.3,4.5,0.8c1.4,0.5,2.6,1.3,3.6,2.2c1,0.9,1.8,2,2.4,3.4
			c0.6,1.3,0.9,2.8,0.9,4.3c0,2.3-0.6,4.4-1.8,6.1c-1.2,1.7-2.9,3-4.9,3.7l7.5,14.6c0.1,0.2,0.1,0.3,0,0.5c-0.1,0.1-0.2,0.2-0.4,0.2
			H179.1z M176.9,420.8c1-0.9,1.5-2.1,1.5-3.7c0-1.6-0.5-2.8-1.5-3.7c-1-0.9-2.3-1.4-4-1.4h-7.6c-0.2,0-0.3,0.1-0.3,0.3v9.5
			c0,0.2,0.1,0.3,0.3,0.3h7.6C174.6,422.2,175.9,421.7,176.9,420.8"/>
            <path fill="#13316E" d="M192.2,434c-0.2-0.6-0.3-1.1-0.4-1.7c-0.1-0.5-0.2-1.2-0.3-1.9c-0.1-0.7-0.1-1.6-0.2-2.5
			c0-1-0.1-2.2-0.1-3.6c0-1.4,0-2.6,0.1-3.6c0-1,0.1-1.8,0.2-2.5c0.1-0.7,0.2-1.3,0.3-1.9c0.1-0.5,0.3-1.1,0.4-1.7
			c0.9-2.9,2.4-5.2,4.6-6.6c2.2-1.5,4.8-2.2,7.8-2.2c2.9,0,5.4,0.7,7.4,2c2.1,1.4,3.6,3.2,4.7,5.6c0.1,0.3,0,0.5-0.3,0.6l-4.5,2.2
			c-0.3,0.2-0.5,0.1-0.7-0.3c-0.6-1.3-1.4-2.3-2.4-3.3c-1-0.9-2.4-1.4-4.2-1.4c-1.7,0-3.1,0.4-4.1,1.3c-1,0.8-1.8,2-2.3,3.5
			c-0.1,0.4-0.2,0.8-0.3,1.2c-0.1,0.4-0.2,0.9-0.2,1.5c-0.1,0.6-0.1,1.4-0.1,2.2c0,0.9,0,2,0,3.3c0,1.3,0,2.4,0,3.3
			c0,0.9,0.1,1.6,0.1,2.2c0.1,0.6,0.1,1.1,0.2,1.5c0.1,0.4,0.2,0.8,0.3,1.1c0.5,1.5,1.3,2.6,2.3,3.5c1,0.8,2.4,1.3,4.1,1.3
			c1.8,0,3.2-0.5,4.2-1.4c1-0.9,1.9-2,2.4-3.3c0.1-0.4,0.4-0.4,0.7-0.3l4.5,2.2c0.3,0.1,0.4,0.3,0.3,0.6c-1,2.4-2.6,4.3-4.7,5.6
			c-2.1,1.4-4.6,2.1-7.4,2.1c-3.1,0-5.7-0.7-7.8-2.2C194.6,439.1,193.1,436.9,192.2,434"/>
            <path fill="#13316E" d="M236.1,442.8c-3.1,0-5.8-0.7-8-2.2c-2.2-1.5-3.7-3.6-4.7-6.4c-0.6-1.9-0.9-5.2-0.9-9.8
			c0-4.7,0.3-7.9,0.9-9.8c0.9-2.8,2.5-4.9,4.7-6.4c2.2-1.5,4.8-2.2,8-2.2c3.2,0,5.8,0.7,8,2.2c2.2,1.5,3.7,3.6,4.7,6.4
			c0.6,1.9,0.9,5.2,0.9,9.8c0,4.7-0.3,7.9-0.9,9.8c-0.9,2.8-2.5,4.9-4.7,6.4C241.9,442,239.2,442.8,236.1,442.8z M236.1,437.2
			c3.4,0,5.6-1.6,6.7-4.7c0.4-1.3,0.6-4,0.6-8.2c0-4.1-0.2-6.9-0.6-8.2c-1.1-3.1-3.3-4.7-6.7-4.7c-3.3,0-5.5,1.6-6.6,4.7
			c-0.4,1.3-0.6,4.1-0.6,8.2c0,4.2,0.2,6.9,0.6,8.2C230.5,435.6,232.7,437.2,236.1,437.2z"/>
            <path fill="#13316E" d="M295.2,442.2h-5.2c-0.4,0-0.5-0.2-0.5-0.5V407c0-0.3,0.2-0.5,0.5-0.5h13.4c3.5,0,6.3,1,8.5,3.1
			c2.2,2.1,3.3,4.7,3.3,8c0,3.3-1.1,6-3.3,8.1c-2.2,2.1-5,3.1-8.5,3.1h-7.4c-0.2,0-0.3,0.1-0.3,0.3v12.7
			C295.8,442,295.6,442.2,295.2,442.2z M303.1,423.1c1.8,0,3.3-0.5,4.3-1.5c1.1-1,1.6-2.3,1.6-4c0-1.6-0.5-3-1.6-4
			c-1.1-1-2.5-1.5-4.3-1.5h-7c-0.2,0-0.3,0.1-0.3,0.3v10.4c0,0.2,0.1,0.3,0.3,0.3H303.1z"/>
            <path fill="#13316E" d="M315.5,441.7l12.3-34.7c0.1-0.3,0.3-0.5,0.7-0.5h4.8c0.3,0,0.6,0.2,0.7,0.5l12.1,34.7
			c0.1,0.4,0,0.5-0.4,0.5h-5.2c-0.4,0-0.6-0.2-0.7-0.5l-2.4-6.9h-13.5l-2.4,6.9c-0.1,0.4-0.3,0.5-0.7,0.5h-5.1
			C315.6,442.2,315.4,442,315.5,441.7z M326,429.2h9.7l-4.7-13.9h-0.2L326,429.2z"/>
            <path fill="#13316E" d="M257.9,442.2c-0.3,0-0.5-0.2-0.5-0.5V407c0-0.3,0.2-0.5,0.5-0.5h13.4c1.7,0,3.3,0.3,4.8,0.8
			c1.5,0.5,2.7,1.3,3.7,2.3c1,1,1.8,2.1,2.4,3.5c0.6,1.4,0.9,2.9,0.9,4.5c0,1.7-0.3,3.2-0.9,4.6c-0.6,1.4-1.4,2.5-2.4,3.5
			c-1,1-2.3,1.7-3.7,2.3c-1.5,0.5-3,0.8-4.8,0.8h-7.4c-0.2,0-0.3,0.1-0.3,0.3v12.7c0,0.3-0.2,0.5-0.5,0.5H257.9z M275.3,421.6
			c1.1-1,1.6-2.3,1.6-4c0-1.6-0.5-3-1.6-4c-1.1-1-2.5-1.5-4.4-1.5h-7c-0.2,0-0.3,0.1-0.3,0.3v10.4c0,0.2,0.1,0.3,0.3,0.3h7
			C272.8,423.1,274.2,422.6,275.3,421.6"/>
	</g>
</g>
</svg>
